<svg id="Stromdurchflossene_Spule_universaldenker.de" data-name="Stromdurchflossene Spule | universaldenker.de" xmlns="http://www.w3.org/2000/svg" viewBox="0 0 1500 850"><defs><style>.cls-1{fill:#af7ac5;}.cls-11,.cls-2,.cls-3,.cls-4,.cls-5,.cls-6,.cls-7,.cls-8{fill:none;}.cls-11,.cls-2{stroke:#4c4c4c;}.cls-11,.cls-2,.cls-3,.cls-5,.cls-6,.cls-8{stroke-linecap:round;}.cls-2,.cls-6{stroke-width:12.73px;}.cls-3,.cls-4,.cls-5,.cls-7{stroke:#af7ac5;}.cls-11,.cls-3,.cls-5,.cls-8{stroke-linejoin:round;}.cls-11,.cls-3{stroke-width:10px;}.cls-4,.cls-5{stroke-width:9.09px;}.cls-6{stroke:#666;}.cls-7{stroke-miterlimit:10;stroke-width:5.46px;}.cls-8{stroke:#a83b3b;stroke-width:12px;}.cls-9{fill:#a83b3b;}.cls-10{fill:#4c4c4c;}</style></defs><title>current-carrying-coil (universaldenker.org)</title><path class="cls-1" d="M96.1,183.9c0-.3-3.2-.3-9.3-.3-9,0-9.2,0-10.3-.4a4,4,0,0,1-2.1-2.7,21.5,21.5,0,0,1,.9-4.2c1-4,1.2-4.6,2.7-5.3s2.5-.4,49-.4c53.2.2,49.8,0,57,1.5,15.3,2.9,27.9,10.5,27.9,27.7a31.7,31.7,0,0,1-3.1,13.9c-6.1,11.8-18.5,20.6-35.4,24.8l-3.3.6h-.2c0,.3,31.7,3.6,31.7,28.6a33.7,33.7,0,0,1-3.6,15.2c-8.8,18.5-28.1,30-53.4,31.7-1.9.2-21.4.2-51.5.2H44.8a4.4,4.4,0,0,1-3.2-3.1,20.1,20.1,0,0,1,.9-4.2c1-4,1.2-4.7,2.7-5.3s1.7-.4,11.1-.4H66.6C67.3,298.8,96.1,184.5,96.1,183.9ZM157,245.7c-1.2-.3-2.9-.3-23.7-.5H111l-6.9,28c-3.8,15.3-7,28-7.2,28.2s.9.4,21,.4l21.3-.2,2.5-.4c14.7-3.6,24.4-14.5,27.1-30.3a37.4,37.4,0,0,0,.6-6.5C169.4,254.1,165,248.4,157,245.7Zm10.8-61.8-20.6-.3H126.6l-6.3,25.3c-3.6,13.8-6.6,25.2-6.6,25.4s3.2.2,17.7.2c16.8-.2,17.7-.2,20-.6,12.6-2.3,21.8-10.3,26.7-22.3a46.6,46.6,0,0,0,2.3-12.4C180.4,190.2,175.3,186,167.8,183.9Z"/><path class="cls-2" d="M310.9,600.1c-53.7.8-43.3-329.5,16.6-345"/><path id="Spule" class="cls-2" d="M353.4,600.1c-53.8.8-43.4-329.5,16.5-345m22.9,345c-53.7.8-43.3-329.5,16.6-345m22.6,345c-53.7.8-43.3-329.5,16.6-345m25.6,345c-53.7.8-43.4-329.5,16.5-345m25.7,345c-53.8.8-43.4-329.5,16.5-345m25.6,345c-53.7.8-43.3-329.5,16.6-345m25.6,345c-53.8.8-43.4-329.5,16.5-345m25.7,345c-53.8.8-43.4-329.5,16.5-345m25.6,345c-53.7.8-43.4-329.5,16.5-345m25.7,345c-53.8.8-43.4-329.5,16.5-345m25.6,345c-53.7.8-43.3-329.5,16.6-345M938,600.1c-53.8.8-43.4-329.5,16.5-345m242.6,345c-53.8.8-43.4-329.5,16.5-345m-149.1,345c-53.8.8-43.4-329.5,16.5-345m73.9,345c-53.8.8-43.4-329.5,16.5-345m-191.2,345c-53.8.8-43.4-329.5,16.5-345m-100.9,345c-53.7.8-43.3-329.5,16.6-345m109.9,345c-53.7.8-43.3-329.5,16.6-345m67.7,345c-53.7.8-43.3-329.5,16.6-345m-269.5,345c-53.8.8-43.4-329.5,16.5-345m-58.7,345c-53.7.8-43.4-329.5,16.5-345"/><path class="cls-3" d="M182.2,480.2c34-12.6,74.7-19.7,121.9-19.7h901.4c66.6,0,120.5,14.3,160.2,38"/><path class="cls-3" d="M210.6,514.6c27.1-15.8,61.4-25.3,100.3-25.3h893.4c56.6,0,103.2,20.2,131.5,51.1"/><path class="cls-3" d="M232.4,566.2c13.5-29.8,50.4-51.6,83-51.6h881.8c33,0,68,18.9,83.3,45.6"/><path class="cls-4" d="M182.2,375c34,12.6,74.7,19.7,121.9,19.7h901.4c66.6,0,120.5-14.3,160.2-38"/><path class="cls-4" d="M210.6,340.6c27.1,15.9,61.4,25.3,100.3,25.3h893.4c56.6,0,103.2-20.2,131.5-51.1"/><path class="cls-4" d="M232.4,289c13.5,29.8,50.4,51.6,83,51.6h881.8c33,0,68-18.9,83.3-45.6"/><path class="cls-5" d="M145.3,427.6h1290"/><path id="Spule-2" data-name="Spule" class="cls-6" d="M1213.6,255.5c75.6-4.7,60.5,267.1,60.5,267.1M327.5,255.7c64.6-11.7,84.3,360.7,25.6,343.8M285.3,256.2c64.6-11.7,84.3,360.2,25.6,343.3M828,255.7c64.6-11.7,84.4,360.7,25.7,343.8m16.5-343.8c64.6-11.7,84.3,360.7,25.6,343.8m16.6-343.8C977,244,996.7,616.4,938,599.5m16.5-343.8c64.6-11.7,84.4,360.7,25.7,343.8m16.5-343.8c64.6-11.7,84.3,360.7,25.6,343.8M366.9,255.7c64.6-11.7,84.4,360.7,25.7,343.8m13.8-343.8C471,244,490.7,616.4,432,599.5m16.6-343.8c64.6-11.7,84.3,360.7,25.6,343.8m16.5-343.8c64.6-11.7,84.4,360.7,25.7,343.8m16.5-343.8c64.6-11.7,84.3,360.7,25.6,343.8m16.6-343.8c64.6-11.7,84.3,360.7,25.6,343.8m16.5-343.8c64.6-11.7,84.4,360.7,25.7,343.8m16.5-343.8C724,244,743.7,616.4,685,599.5m16.5-343.8c64.7-11.7,84.4,360.7,25.7,343.8m16.5-343.8C808.3,244,828,616.4,769.3,599.5m16.6-343.8c64.6-11.7,84.3,360.7,25.6,343.8m227.4-343.8c64.6-11.7,84.3,360.7,25.6,343.8M1081,255.7c64.6-11.7,84.3,360.7,25.6,343.8m64.8-343.8c64.6-11.7,84.4,360.7,25.7,343.8m-73.9-343.8c64.6-11.7,84.3,360.7,25.6,343.8"/><g id="Richtung"><line class="cls-7" x1="1340.7" y1="427.6" x2="1373.6" y2="427.6"/><polygon class="cls-1" points="1358.3 447.8 1366.9 427.6 1358.3 407.4 1406.2 427.6 1358.3 447.8"/></g><g id="Richtung-2" data-name="Richtung"><line class="cls-7" x1="160.4" y1="427.6" x2="193.3" y2="427.6"/><polygon class="cls-1" points="178 447.8 186.5 427.6 178 407.4 225.9 427.6 178 447.8"/></g><g id="Richtung-3" data-name="Richtung"><line class="cls-8" x1="1274.3" y1="401" x2="1275.4" y2="450.3"/><polygon class="cls-9" points="1248.3 430.7 1275.2 441.4 1301.6 429.5 1276.4 493.3 1248.3 430.7"/></g><path class="cls-10" d="M685,801.6a29.9,29.9,0,0,1,1.4-5.2c.4-.9.9-1.1,4-1.1,8.3-.3,13.2-2.6,15.4-6.8.6-.9,2.7-9.1,12.5-48.5l11.9-47.6-9.7-.5c-6.8,0-7,0-7.3-1.2s-.4-.5.2-3.2.8-3.1,1.5-3.5h17c18.4,0,17.3,0,17.9,1s37.1,87,37.6,89.1l9.5-37.3c7.7-30.6,9.2-37.3,9.2-39.4,0-4.3-6.4-5-11.2-5.4-3.1,0-3.6-.2-4-1.2s-.3-.5.2-2.8.5-4,2.8-4c5.8,0,11.2.5,19.9.5s13.3-.4,18.6-.4c1.9,0,2.6.4,2.6,1.8s-1,4.9-1.4,5.2-.9.9-3.8.9c-7.4.4-13.2,2.1-15.6,7-.4,1.1-26.1,103.3-26.1,103.3s-1,1.2-3.7,1.2-2.4,0-2.9-.4-4.8-10.5-22.6-53l-22.3-52.3-11.3,45.5c-10.9,42.7-11.4,45.3-11.4,46.4.9,4.9,6.5,5.7,12.6,5.7h1.7c1.4,1.1,1.6,1.3.7,4.8s-.7,2.2-1.7,3.3h-2.3c-5.4-.4-12.1-.4-18.9-.4l-18.4.2C685.7,803.2,685,803,685,801.6Z"/><path class="cls-10" d="M742.2,188.6a20,20,0,0,1,.2-3.5l13.3-52.9c7-28.1,12.7-51.9,12.9-52.5.7-4.7-3.4-4.1-9.2-4.3s-5.1-.2-5.7-1.4-.2-.8.4-3.5,1-3.9,1.8-4.3,30.4-2.5,30.6-2.5,2.4.4,2.4,1.7c0,4.1-29.3,116.9-30.3,123.6,0,1.1-.2,2.5-.2,3.7,0,4.1.4,6.2,2.9,7.6a8.3,8.3,0,0,0,4.9-.2c4.1-2.2,7-7.8,10.2-20.9,1.3-4.3,1.1-4.5,4.1-4.5h.9c3.2,0,3.9-.2,3.9,1.8s-2.9,11.7-4.8,16c-3.9,9-8.6,14-14.7,15.4a17.5,17.5,0,0,1-3.3.4C750.4,208.3,742.2,200.9,742.2,188.6Z"/><line class="cls-11" x1="285.3" y1="181.7" x2="285.3" y2="219.7"/><line class="cls-11" x1="828" y1="200.7" x2="1213.6" y2="200.7"/><line class="cls-11" x1="285.3" y1="200.7" x2="688.8" y2="200.7"/><line class="cls-11" x1="1218.3" y1="181.7" x2="1218.3" y2="219.7"/><path class="cls-9" d="M1344.9,484.1c0-.3-3.5-.3-10.3-.3-10.1,0-10.3,0-11.2-.4s-2.1-1.5-2.1-3.1,1.5-9,3.5-9.6,1.1-.4,5.2-.4c11.2.4,24.1.4,36.6.4s24.1-.4,35.1-.4c2.6,0,4.4,1,4.4,3.5a45.9,45.9,0,0,1-2,8.3,8.7,8.7,0,0,1-1.5,1.3c-.9.4-1.1.4-12.3.4h-11.4l-15.1,61.4c-8.6,33.8-15.6,61.4-15.6,61.6s2.2.2,10.3.2c10.1,0,10.3,0,11.4.5a4,4,0,0,1,2,3,38.4,38.4,0,0,1-2,8.4,7.3,7.3,0,0,1-2.6,1.7l-9.7-.2c-5.9-.2-17.9-.2-29.8-.2s-23.9,0-29.3.2l-8.1.2c-1.6-.6-3.3-1.5-3.3-3.5s1.5-8.3,3.5-9.6,1.3-.5,12.2-.5h11.4C1314.9,604,1344.9,484.7,1344.9,484.1Z"/><circle class="cls-10" cx="310.1" cy="628.1" r="8.3"/><circle class="cls-10" cx="354.7" cy="629.1" r="8.3"/><circle class="cls-10" cx="395.6" cy="628.1" r="8.3"/><circle class="cls-10" cx="436.5" cy="628.6" r="8.3"/><circle class="cls-10" cx="482.7" cy="629.1" r="8.3"/><circle class="cls-10" cx="527.4" cy="630.1" r="8.3"/><circle class="cls-10" cx="568.3" cy="629.1" r="8.3"/><circle class="cls-10" cx="609.2" cy="629.6" r="8.3"/><circle class="cls-10" cx="652.4" cy="629.1" r="8.3"/><circle class="cls-10" cx="697.1" cy="630.1" r="8.3"/><circle class="cls-10" cx="738" cy="629.1" r="8.3"/><circle class="cls-10" cx="778.8" cy="629.6" r="8.3"/><circle class="cls-10" cx="825.1" cy="630.1" r="8.3"/><circle class="cls-10" cx="869.8" cy="631.1" r="8.3"/><circle class="cls-10" cx="910.6" cy="630.1" r="8.3"/><circle class="cls-10" cx="951.5" cy="630.6" r="8.3"/><circle class="cls-10" cx="993.7" cy="629.6" r="8.3"/><circle class="cls-10" cx="1038.4" cy="630.6" r="8.3"/><circle class="cls-10" cx="1079.3" cy="629.6" r="8.3"/><circle class="cls-10" cx="1120.2" cy="630.1" r="8.3"/><circle class="cls-10" cx="1166.4" cy="630.6" r="8.3"/><circle class="cls-10" cx="1211.1" cy="631.6" r="8.3"/></svg>